<?xml version="1.0" encoding="utf-8"?>
<!-- Generator: Adobe Illustrator 18.0.0, SVG Export Plug-In . SVG Version: 6.00 Build 0)  -->
<!DOCTYPE svg PUBLIC "-//W3C//DTD SVG 1.1//EN" "http://www.w3.org/Graphics/SVG/1.1/DTD/svg11.dtd">
<svg version="1.1" id="Layer_1" xmlns="http://www.w3.org/2000/svg" xmlns:xlink="http://www.w3.org/1999/xlink" x="0px" y="0px"
	 viewBox="52.9 52.9 44.9 44.9" enable-background="new 52.9 52.9 44.9 44.9" xml:space="preserve">
<g>
	<g>
		<circle fill="#2C3D67" cx="75.3" cy="75.3" r="15"/>
		<circle fill="none" stroke="#2C3D67" stroke-width="3.7205" stroke-miterlimit="10" cx="75.3" cy="75.3" r="15"/>
		<circle fill="none" stroke="#FFFFFF" stroke-width="1.063" stroke-miterlimit="10" cx="75.3" cy="75.3" r="15"/>
	</g>
	<path fill="#FFFFFF" d="M83.7,76.4c-0.7,0.7-2.3,1.9-3.6,2.8c0,0,0.8,0.2,1.4,0.3c-2.4,3.3-5.2,3.3-5.2,1.5c0-1.9,0-9.8,0-9.8
		s3.6,0,3.8,0c0.1,0,0.2,0.1,0.2-0.1c0-0.3,0-1.5,0-1.7c0-0.1,0-0.2-0.2-0.2s-3.7,0-3.7,0v-1c0.4-0.3,0.8-0.8,0.8-1.5
		c0-1-0.8-1.8-1.8-1.8c-1,0-1.8,0.8-1.8,1.8c0,0.7,0.5,1.3,0.9,1.6v0.8c0,0-3.7,0-3.9,0s-0.1,0.2-0.1,0.2c0,0.2,0,1.4,0,1.7
		c0,0.2-0.1,0.1,0.1,0.1c0.1,0,3.9,0,3.9,0s0,7.9,0,9.8c0,1.8-2.8,1.7-5.3-1.5c0.7-0.2,1.4-0.3,1.4-0.3c-1.3-0.8-2.9-2.1-3.6-2.8
		c0.1,1.1,0.4,3.9,0.3,4.4c0.4-0.3,0.5-0.6,0.8-0.9c0.2,0.6,1,3.3,4.3,4.3c1,0.3,2,0.8,3,1.4c1-0.6,2-1,3-1.4c3.3-1.1,4-3.7,4.3-4.3
		c0.3,0.3,0.5,0.6,0.8,0.9C83.3,80.2,83.6,77.5,83.7,76.4z"/>
</g>
</svg>
