<?xml version="1.0" encoding="utf-8"?>
<!-- Generator: Adobe Illustrator 18.0.0, SVG Export Plug-In . SVG Version: 6.00 Build 0)  -->
<!DOCTYPE svg PUBLIC "-//W3C//DTD SVG 1.1//EN" "http://www.w3.org/Graphics/SVG/1.1/DTD/svg11.dtd">
<svg version="1.1" id="Layer_1" xmlns="http://www.w3.org/2000/svg" xmlns:xlink="http://www.w3.org/1999/xlink" x="0px" y="0px"
	 viewBox="14.7 14.7 70.5 70.5" enable-background="new 14.7 14.7 70.5 70.5" xml:space="preserve">
<g>
	<g>
		<circle fill="#2C3D67" cx="50" cy="50" r="33.4"/>
		<circle fill="none" stroke="#2C3D67" stroke-width="3.7205" stroke-miterlimit="10" cx="50" cy="50" r="33.4"/>
		<circle fill="none" stroke="#FFFFFF" stroke-width="1.063" stroke-miterlimit="10" cx="50" cy="50" r="33.4"/>
	</g>
	<path fill="#FFFFFF" d="M68.7,52.4c-1.6,1.6-5.1,4.2-8,6.2c0,0,1.8,0.4,3.1,0.7c-5.3,7.3-11.6,7.3-11.6,3.3c0-4.2,0-21.8,0-21.8
		s8,0,8.5,0c0.2,0,0.4,0.2,0.4-0.2c0-0.7,0-3.3,0-3.8c0-0.2,0-0.4-0.4-0.4s-8.2,0-8.2,0v-2.2c0.9-0.7,1.8-1.8,1.8-3.3
		c0-2.2-1.8-4-4-4s-4,1.8-4,4c0,1.6,1.1,2.9,2,3.6v1.8c0,0-8.2,0-8.7,0s-0.2,0.4-0.2,0.4c0,0.4,0,3.1,0,3.8c0,0.4-0.2,0.2,0.2,0.2
		c0.2,0,8.7,0,8.7,0s0,17.6,0,21.8c0,4-6.2,3.8-11.8-3.3c1.6-0.4,3.1-0.7,3.1-0.7c-2.9-1.8-6.5-4.7-8-6.2c0.2,2.4,0.9,8.7,0.7,9.8
		c0.9-0.7,1.1-1.3,1.8-2c0.4,1.3,2.2,7.3,9.6,9.6c2.2,0.7,4.5,1.8,6.7,3.1c2.2-1.3,4.5-2.2,6.7-3.1c7.3-2.4,8.9-8.2,9.6-9.6
		c0.7,0.7,1.1,1.3,1.8,2C67.8,60.9,68.5,54.9,68.7,52.4z"/>
</g>
</svg>
